
<svg width="160" height="200" viewBox="0 0 160 200" fill="none">

<g transform="translate(0.000000,150.000000) scale(0.100000,-0.100000)"
 stroke="none">
<path d="M0 750 l0 -750 750 0 750 0 0 750 0 750 -750 0 -750 0 0 -750z m1400
0 l0 -650 -650 0 -650 0 0 650 0 650 650 0 650 0 0 -650z"/>
<path d="M150 750 l0 -600 598 2 597 3 3 598 2 597 -600 0 -600 0 0 -600z
m793 451 c86 -34 111 -31 123 14 3 14 12 25 20 25 11 0 14 -31 14 -165 0 -140
-2 -165 -15 -165 -8 0 -15 6 -15 13 0 28 -51 119 -92 163 -116 126 -288 126
-375 0 -64 -93 -94 -273 -75 -445 20 -171 57 -249 142 -295 55 -30 133 -37
194 -16 l36 12 1 106 c1 59 0 118 0 132 -3 31 -44 70 -77 70 -15 0 -24 6 -24
15 0 13 26 15 197 13 136 -2 198 -7 200 -14 2 -7 -13 -16 -34 -21 -54 -13 -63
-36 -63 -180 l0 -122 -27 -15 c-100 -51 -295 -78 -408 -57 -155 29 -281 143
-336 303 -30 88 -30 245 0 339 37 117 128 231 224 280 113 59 259 62 390 10z"/>
</g>
<!-- <style>
    svg { fill: #000; }

    @media (prefers-color-scheme: dark) {
        svg { fill: #F7F0EF; }
    }
    </style> -->
</svg>
